# xmcd
#
# Track frame offsets:
#	183
#	14550
#	33248
#
# Disc length: 653 seconds
#
# Revision: 6
# Processed by: cddbd v1.5.2PL0 Copyright (c) Steve Scherf et al.
# Submitted via: EasyCDDAExtractor 11.1.0.1
#
DISCID=1b028b03
DTITLE=Alan Jackson - promo
DYEAR=2003
DGENRE=country
TTITLE0=Chattahoochee
TTITLE1=Chattahoochee1
TTITLE2=You can't have it all
EXTD=YEAR: 2003
EXTT0=
EXTT1=
EXTT2=
PLAYORDER=
